<svg width="419" height="125" viewBox="0 0 419 125" fill="none" xmlns="http://www.w3.org/2000/svg">
<g opacity="0.96">
<path d="M4.79742 86.5375C3.24826 86.5375 2.0489 86.1125 1.19936 85.2625C0.399785 84.3625 0 83.1375 0 81.5875V37.9375C0 36.3375 0.424772 35.1375 1.27432 34.3375C2.12386 33.4875 3.32322 33.0625 4.87238 33.0625H22.9377C28.7346 33.0625 33.2072 34.5125 36.3555 37.4125C39.5038 40.3125 41.0779 44.3625 41.0779 49.5625C41.0779 54.7625 39.5038 58.8375 36.3555 61.7875C33.2072 64.6875 28.7346 66.1375 22.9377 66.1375H9.59485V81.5875C9.59485 83.1375 9.19506 84.3625 8.39549 85.2625C7.59592 86.1125 6.39656 86.5375 4.79742 86.5375ZM9.59485 58.5625H21.4385C24.8367 58.5625 27.4103 57.8125 29.1593 56.3125C30.9084 54.7625 31.7829 52.5125 31.7829 49.5625C31.7829 46.6125 30.9084 44.3875 29.1593 42.8875C27.4103 41.3875 24.8367 40.6375 21.4385 40.6375H9.59485V58.5625Z" fill="#29648A"/>
<path d="M52.0654 86.5375C50.5162 86.5375 49.3169 86.1375 48.4673 85.3375C47.6678 84.4875 47.268 83.2875 47.268 81.7375V53.3875C47.268 51.8375 47.6678 50.6625 48.4673 49.8625C49.2669 49.0625 50.3913 48.6625 51.8405 48.6625C53.2897 48.6625 54.4141 49.0625 55.2137 49.8625C56.0133 50.6625 56.4131 51.8375 56.4131 53.3875V58.1125H55.6635C56.3631 55.1125 57.7374 52.8375 59.7863 51.2875C61.8352 49.7375 64.5587 48.8125 67.9569 48.5125C69.0063 48.4125 69.8309 48.6875 70.4305 49.3375C71.0802 49.9375 71.455 50.8875 71.5549 52.1875C71.6549 53.4375 71.355 54.4625 70.6554 55.2625C70.0058 56.0125 69.0063 56.4625 67.657 56.6125L66.0079 56.7625C62.9595 57.0625 60.6608 58.0125 59.1116 59.6125C57.5624 61.1625 56.7879 63.3625 56.7879 66.2125V81.7375C56.7879 83.2875 56.3881 84.4875 55.5885 85.3375C54.7889 86.1375 53.6146 86.5375 52.0654 86.5375Z" fill="#29648A"/>
<path d="M92.7527 86.6875C88.9548 86.6875 85.6565 85.9125 82.858 84.3625C80.0595 82.8125 77.8857 80.6125 76.3365 77.7625C74.7874 74.8625 74.0128 71.4625 74.0128 67.5625C74.0128 64.6125 74.4376 61.9875 75.2871 59.6875C76.1866 57.3375 77.4609 55.3375 79.1101 53.6875C80.7592 51.9875 82.7331 50.7125 85.0319 49.8625C87.3306 48.9625 89.9043 48.5125 92.7527 48.5125C96.5507 48.5125 99.8489 49.2875 102.647 50.8375C105.446 52.3875 107.62 54.5875 109.169 57.4375C110.718 60.2875 111.493 63.6625 111.493 67.5625C111.493 70.5125 111.043 73.1625 110.143 75.5125C109.294 77.8625 108.045 79.8875 106.395 81.5875C104.746 83.2375 102.772 84.5125 100.474 85.4125C98.1748 86.2625 95.6012 86.6875 92.7527 86.6875ZM92.7527 79.5625C94.6017 79.5625 96.2259 79.1125 97.6251 78.2125C99.0244 77.3125 100.099 75.9875 100.848 74.2375C101.648 72.4375 102.048 70.2125 102.048 67.5625C102.048 63.5625 101.198 60.5875 99.4991 58.6375C97.8 56.6375 95.5512 55.6375 92.7527 55.6375C90.9037 55.6375 89.2796 56.0875 87.8803 56.9875C86.4811 57.8375 85.3817 59.1625 84.5821 60.9625C83.8325 62.7125 83.4577 64.9125 83.4577 67.5625C83.4577 71.5125 84.3073 74.5125 86.0063 76.5625C87.7054 78.5625 89.9542 79.5625 92.7527 79.5625Z" fill="#29648A"/>
<path d="M126.057 86.5375C124.557 86.5375 123.383 86.1375 122.533 85.3375C121.734 84.4875 121.334 83.2875 121.334 81.7375V56.3125H117.886C116.687 56.3125 115.762 56.0125 115.112 55.4125C114.463 54.7625 114.138 53.8875 114.138 52.7875C114.138 51.6375 114.463 50.7625 115.112 50.1625C115.762 49.5625 116.687 49.2625 117.886 49.2625H124.033L121.334 51.7375V49.1875C121.334 44.0375 122.633 40.1875 125.232 37.6375C127.831 35.0375 131.579 33.5125 136.476 33.0625L139.025 32.8375C140.024 32.7375 140.824 32.9125 141.423 33.3625C142.023 33.7625 142.423 34.3125 142.623 35.0125C142.823 35.6625 142.848 36.3375 142.698 37.0375C142.548 37.7375 142.223 38.3625 141.723 38.9125C141.273 39.4125 140.674 39.6875 139.924 39.7375L138.875 39.8125C136.026 40.0125 133.952 40.7375 132.653 41.9875C131.354 43.2375 130.704 45.1375 130.704 47.6875V50.4625L129.505 49.2625H137.076C138.275 49.2625 139.199 49.5625 139.849 50.1625C140.499 50.7625 140.824 51.6375 140.824 52.7875C140.824 53.8875 140.499 54.7625 139.849 55.4125C139.199 56.0125 138.275 56.3125 137.076 56.3125H130.704V81.7375C130.704 84.9375 129.155 86.5375 126.057 86.5375Z" fill="#29648A"/>
<path d="M163.279 86.6875C159.131 86.6875 155.558 85.9125 152.559 84.3625C149.561 82.8125 147.237 80.6125 145.588 77.7625C143.989 74.9125 143.189 71.5375 143.189 67.6375C143.189 63.8375 143.964 60.5125 145.513 57.6625C147.112 54.8125 149.286 52.5875 152.035 50.9875C154.833 49.3375 158.007 48.5125 161.555 48.5125C164.153 48.5125 166.477 48.9375 168.526 49.7875C170.625 50.6375 172.399 51.8625 173.848 53.4625C175.347 55.0625 176.472 57.0125 177.221 59.3125C178.021 61.5625 178.421 64.1125 178.421 66.9625C178.421 67.8625 178.096 68.5625 177.446 69.0625C176.846 69.5125 175.972 69.7375 174.823 69.7375H150.76V64.3375H171.824L170.625 65.4625C170.625 63.1625 170.275 61.2375 169.575 59.6875C168.926 58.1375 167.951 56.9625 166.652 56.1625C165.403 55.3125 163.828 54.8875 161.929 54.8875C159.831 54.8875 158.032 55.3875 156.532 56.3875C155.083 57.3375 153.959 58.7125 153.159 60.5125C152.41 62.2625 152.035 64.3625 152.035 66.8125V67.3375C152.035 71.4375 152.984 74.5125 154.883 76.5625C156.832 78.5625 159.681 79.5625 163.429 79.5625C164.728 79.5625 166.177 79.4125 167.776 79.1125C169.425 78.7625 170.975 78.1875 172.424 77.3875C173.473 76.7875 174.398 76.5375 175.197 76.6375C175.997 76.6875 176.622 76.9625 177.071 77.4625C177.571 77.9625 177.871 78.5875 177.971 79.3375C178.071 80.0375 177.921 80.7625 177.521 81.5125C177.171 82.2625 176.547 82.9125 175.647 83.4625C173.898 84.5625 171.874 85.3875 169.575 85.9375C167.327 86.4375 165.228 86.6875 163.279 86.6875Z" fill="#29648A"/>
<path d="M181.343 100.112C180.244 100.212 179.345 100.037 178.645 99.5875C177.945 99.1875 177.471 98.6625 177.221 98.0125C176.921 97.3625 176.821 96.6875 176.921 95.9875C177.021 95.2875 177.321 94.6625 177.82 94.1125C178.27 93.6125 178.895 93.3375 179.694 93.2875C181.943 93.0875 183.567 92.4375 184.567 91.3375C185.616 90.2875 186.141 88.6625 186.141 86.4625V53.3875C186.141 51.8375 186.541 50.6625 187.34 49.8625C188.19 49.0625 189.364 48.6625 190.863 48.6625C192.363 48.6625 193.512 49.0625 194.311 49.8625C195.111 50.6625 195.511 51.8375 195.511 53.3875V85.6375C195.511 88.8375 194.986 91.4625 193.937 93.5125C192.937 95.5625 191.388 97.1125 189.289 98.1625C187.24 99.2125 184.592 99.8625 181.343 100.112ZM190.788 41.7625C189.039 41.7625 187.665 41.3375 186.666 40.4875C185.716 39.5875 185.241 38.3625 185.241 36.8125C185.241 35.2125 185.716 33.9875 186.666 33.1375C187.665 32.2875 189.039 31.8625 190.788 31.8625C192.587 31.8625 193.962 32.2875 194.911 33.1375C195.861 33.9875 196.335 35.2125 196.335 36.8125C196.335 38.3625 195.861 39.5875 194.911 40.4875C193.962 41.3375 192.587 41.7625 190.788 41.7625Z" fill="#29648A"/>
<path d="M221.956 86.6875C218.158 86.6875 214.86 85.9125 212.061 84.3625C209.263 82.8125 207.089 80.6125 205.54 77.7625C203.99 74.8625 203.216 71.4625 203.216 67.5625C203.216 64.6125 203.641 61.9875 204.49 59.6875C205.39 57.3375 206.664 55.3375 208.313 53.6875C209.962 51.9875 211.936 50.7125 214.235 49.8625C216.534 48.9625 219.107 48.5125 221.956 48.5125C225.754 48.5125 229.052 49.2875 231.85 50.8375C234.649 52.3875 236.823 54.5875 238.372 57.4375C239.921 60.2875 240.696 63.6625 240.696 67.5625C240.696 70.5125 240.246 73.1625 239.346 75.5125C238.497 77.8625 237.248 79.8875 235.598 81.5875C233.949 83.2375 231.975 84.5125 229.677 85.4125C227.378 86.2625 224.804 86.6875 221.956 86.6875ZM221.956 79.5625C223.805 79.5625 225.429 79.1125 226.828 78.2125C228.227 77.3125 229.302 75.9875 230.051 74.2375C230.851 72.4375 231.251 70.2125 231.251 67.5625C231.251 63.5625 230.401 60.5875 228.702 58.6375C227.003 56.6375 224.754 55.6375 221.956 55.6375C220.107 55.6375 218.483 56.0875 217.083 56.9875C215.684 57.8375 214.585 59.1625 213.785 60.9625C213.036 62.7125 212.661 64.9125 212.661 67.5625C212.661 71.5125 213.51 74.5125 215.209 76.5625C216.909 78.5625 219.157 79.5625 221.956 79.5625Z" fill="#29648A"/>
<path d="M265.146 86.6875C261.348 86.6875 258.049 85.9125 255.251 84.3625C252.452 82.8125 250.278 80.6125 248.729 77.7625C247.18 74.8625 246.406 71.4625 246.406 67.5625C246.406 64.6125 246.83 61.9875 247.68 59.6875C248.579 57.3375 249.854 55.3375 251.503 53.6875C253.152 51.9875 255.126 50.7125 257.425 49.8625C259.723 48.9625 262.297 48.5125 265.146 48.5125C268.943 48.5125 272.242 49.2875 275.04 50.8375C277.839 52.3875 280.013 54.5875 281.562 57.4375C283.111 60.2875 283.885 63.6625 283.885 67.5625C283.885 70.5125 283.436 73.1625 282.536 75.5125C281.687 77.8625 280.437 79.8875 278.788 81.5875C277.139 83.2375 275.165 84.5125 272.866 85.4125C270.568 86.2625 267.994 86.6875 265.146 86.6875ZM265.146 79.5625C266.995 79.5625 268.619 79.1125 270.018 78.2125C271.417 77.3125 272.492 75.9875 273.241 74.2375C274.041 72.4375 274.441 70.2125 274.441 67.5625C274.441 63.5625 273.591 60.5875 271.892 58.6375C270.193 56.6375 267.944 55.6375 265.146 55.6375C263.297 55.6375 261.672 56.0875 260.273 56.9875C258.874 57.8375 257.774 59.1625 256.975 60.9625C256.225 62.7125 255.85 64.9125 255.85 67.5625C255.85 71.5125 256.7 74.5125 258.399 76.5625C260.098 78.5625 262.347 79.5625 265.146 79.5625Z" fill="#29648A"/>
<path d="M416.258 122.23C412.603 125.923 406.678 125.923 403.022 122.23L386.506 105.539C379.715 109.941 371.689 112.564 363.022 112.564C338.905 112.564 319.351 92.8068 319.351 68.433C319.351 44.0593 338.905 24.3025 363.022 24.3025C387.142 24.3025 406.693 44.0589 406.693 68.433C406.693 77.1878 404.095 85.302 399.742 92.167L416.258 108.857C419.914 112.551 419.914 118.536 416.258 122.23ZM363.022 36.9111C345.795 36.9111 331.828 51.022 331.828 68.4328C331.828 85.8437 345.795 99.9547 363.022 99.9547C380.251 99.9547 394.216 85.8437 394.216 68.4328C394.216 51.022 380.251 36.9111 363.022 36.9111Z" fill="#29648A"/>
<path d="M362.632 0L314.705 19.6342C313.557 20.1045 312.807 21.2224 312.807 22.4636C312.807 23.6939 313.544 24.8043 314.677 25.2816L328.966 31.2979L331.266 29.7489C335.102 27.1645 339.267 25.1066 343.65 23.6302C347.316 22.3956 351.108 21.5762 354.956 21.1874L356.262 21.0554C360.498 20.6273 364.766 20.6273 369.002 21.0554L370.308 21.1874C374.156 21.5762 377.948 22.3956 381.613 23.6302C385.996 25.1066 390.162 27.1645 393.998 29.7489L396.297 31.2979L408.417 25.8548V36.741L406.048 41.5288C405.834 41.9599 405.723 42.4343 405.723 42.9153V47.2238C405.723 48.9497 407.122 50.3488 408.847 50.3488H412.026C413.751 50.3488 415.15 48.9497 415.15 47.2238V42.9153C415.15 42.4343 415.039 41.9599 414.826 41.5288L412.456 36.741V24.494C412.456 22.0247 410.965 19.8005 408.681 18.8648L362.632 0Z" fill="#29648A"/>
<path d="M387.76 56.2913L383.72 52.8134L359.311 59.9398L347.918 50.1319C346.132 48.5944 343.479 48.9168 341.986 50.6529C340.493 52.389 340.57 55.0621 342.356 56.5996L353.749 66.4074L350.349 91.6193L354.389 95.0972L363.445 74.7545L374.919 84.6321L373.899 92.1956L377.051 94.9083L382.387 85.4326L390.955 78.7392L387.804 76.0265L380.481 78.1645L369.007 68.2869L387.76 56.2913Z" fill="#29648A"/>
</g>
</svg>
